<?xml version="1.0" encoding="us-ascii" standalone="no"?><svg xmlns="http://www.w3.org/2000/svg" xmlns:xlink="http://www.w3.org/1999/xlink" contentStyleType="text/css" height="1087px" preserveAspectRatio="none" style="width:1347px;height:1087px;background:#FFFFE0;" version="1.1" viewBox="0 0 1347 1087" width="1347px" zoomAndPan="magnify"><defs/><g><rect fill="#FFFFE0" height="1087" style="stroke:none;stroke-width:1.0;" width="1347" x="0" y="0"/><!--cluster AccessControl--><g id="cluster_AccessControl"><rect fill="#F8F8FF" height="186" rx="2.5" ry="2.5" style="stroke:#D3D3D3;stroke-width:1.0;" width="478.5" x="14.5" y="198"/><path d="M122.5,198 L122.5,210.0679 L112.5,220.0679 L14.5,220.0679 " fill="none" style="stroke:#D3D3D3;stroke-width:1.0;"/><text fill="#000000" font-family="sans-serif" font-size="14" font-weight="bold" lengthAdjust="spacing" textLength="98" x="17.5" y="213.9659">AccessControl</text></g><!--cluster Profiles--><g id="cluster_Profiles"><rect fill="#F8F8FF" height="654" rx="2.5" ry="2.5" style="stroke:#D3D3D3;stroke-width:1.0;" width="895" x="7" y="427"/><path d="M69,427 L69,439.0679 L59,449.0679 L7,449.0679 " fill="none" style="stroke:#D3D3D3;stroke-width:1.0;"/><text fill="#000000" font-family="sans-serif" font-size="14" font-weight="bold" lengthAdjust="spacing" textLength="52" x="10" y="442.9659">Profiles</text></g><!--cluster QueryBank--><g id="cluster_QueryBank"><rect fill="#F8F8FF" height="148" rx="2.5" ry="2.5" style="stroke:#D3D3D3;stroke-width:1.0;" width="550.5" x="666" y="7"/><path d="M753,7 L753,19.0679 L743,29.0679 L666,29.0679 " fill="none" style="stroke:#D3D3D3;stroke-width:1.0;"/><text fill="#000000" font-family="sans-serif" font-size="14" font-weight="bold" lengthAdjust="spacing" textLength="77" x="669" y="22.9659">QueryBank</text></g><!--cluster Assessments--><g id="cluster_Assessments"><rect fill="#F8F8FF" height="224" rx="2.5" ry="2.5" style="stroke:#D3D3D3;stroke-width:1.0;" width="590" x="642" y="179"/><path d="M742,179 L742,191.0679 L732,201.0679 L642,201.0679 " fill="none" style="stroke:#D3D3D3;stroke-width:1.0;"/><text fill="#000000" font-family="sans-serif" font-size="14" font-weight="bold" lengthAdjust="spacing" textLength="90" x="645" y="194.9659">Assessments</text></g><!--cluster Analytics--><g id="cluster_Analytics"><path d="M932.5,456 L996.5,456 A3.75,3.75 0 0 1 999,458.5 L1006,481.0679 L1337.5,481.0679 A2.5,2.5 0 0 1 1340,483.5679 L1340,917.5 A2.5,2.5 0 0 1 1337.5,920 L932.5,920 A2.5,2.5 0 0 1 930,917.5 L930,458.5 A2.5,2.5 0 0 1 932.5,456 " fill="#F8F8FF" style="stroke:#D3D3D3;stroke-width:1.5;"/><line style="stroke:#D3D3D3;stroke-width:1.5;" x1="930" x2="1006" y1="481.0679" y2="481.0679"/><text fill="#000000" font-family="sans-serif" font-size="14" font-weight="bold" lengthAdjust="spacing" textLength="63" x="934" y="472.9659">Analytics</text></g><!--class User--><g id="elem_User"><rect codeLine="12" fill="#F5F5F5" height="132.4075" id="User" rx="2.5" ry="2.5" style="stroke:#181818;stroke-width:0.5;" width="132" x="345" y="235.8"/><text fill="#000000" font-family="sans-serif" font-size="14" lengthAdjust="spacing" textLength="31" x="395.5" y="255.7659">User</text><line style="stroke:#181818;stroke-width:0.5;" x1="346" x2="476" y1="264.8679" y2="264.8679"/><text fill="#000000" font-family="sans-serif" font-size="14" lengthAdjust="spacing" textLength="70" x="351" y="283.8339">+Id: string</text><text fill="#000000" font-family="sans-serif" font-size="14" lengthAdjust="spacing" textLength="96" x="351" y="302.9018">+Name: string</text><text fill="#000000" font-family="sans-serif" font-size="14" lengthAdjust="spacing" textLength="120" x="351" y="321.9697">+Password: string</text><text fill="#000000" font-family="sans-serif" font-size="14" lengthAdjust="spacing" textLength="93" x="351" y="341.0376">+Email: string</text><text fill="#000000" font-family="sans-serif" font-size="14" lengthAdjust="spacing" textLength="74" x="351" y="360.1055">+Role: Role</text></g><!--class Role--><g id="elem_Role"><rect codeLine="20" fill="#F5F5F5" height="94.2717" id="Role" rx="2.5" ry="2.5" style="stroke:#181818;stroke-width:0.5;" width="145" x="30.5" y="254.86"/><text fill="#000000" font-family="sans-serif" font-size="14" lengthAdjust="spacing" textLength="29" x="88.5" y="274.8259">Role</text><line style="stroke:#181818;stroke-width:0.5;" x1="31.5" x2="174.5" y1="283.9279" y2="283.9279"/><text fill="#000000" font-family="sans-serif" font-size="14" lengthAdjust="spacing" textLength="70" x="36.5" y="302.8939">+Id: string</text><text fill="#000000" font-family="sans-serif" font-size="14" lengthAdjust="spacing" textLength="96" x="36.5" y="321.9618">+Name: string</text><text fill="#000000" font-family="sans-serif" font-size="14" lengthAdjust="spacing" textLength="133" x="36.5" y="341.0297">+Description: string</text></g><!--class Role--><g id="elem_Role"><rect codeLine="30" fill="#F5F5F5" height="132.4075" id="Role" rx="2.5" ry="2.5" style="stroke:#181818;stroke-width:0.5;" width="247" x="639" y="464.8"/><text fill="#000000" font-family="sans-serif" font-size="14" lengthAdjust="spacing" textLength="29" x="748" y="484.7659">Role</text><line style="stroke:#181818;stroke-width:0.5;" x1="640" x2="885" y1="493.8679" y2="493.8679"/><text fill="#000000" font-family="sans-serif" font-size="14" lengthAdjust="spacing" textLength="70" x="645" y="512.8339">+Id: string</text><text fill="#000000" font-family="sans-serif" font-size="14" lengthAdjust="spacing" textLength="96" x="645" y="531.9018">+Name: string</text><text fill="#000000" font-family="sans-serif" font-size="14" lengthAdjust="spacing" textLength="133" x="645" y="550.9697">+Description: string</text><text fill="#000000" font-family="sans-serif" font-size="14" lengthAdjust="spacing" textLength="235" x="645" y="570.0376">+HistorySquad: List&lt;HistorySquad&gt;</text><text fill="#000000" font-family="sans-serif" font-size="14" lengthAdjust="spacing" textLength="222" x="645" y="589.1055">+Assessments: List&lt;Assessment&gt;</text></g><!--class Skill--><g id="elem_Skill"><rect codeLine="38" fill="#F5F5F5" height="151.4754" id="Skill" rx="2.5" ry="2.5" style="stroke:#181818;stroke-width:0.5;" width="336" x="243" y="913.26"/><text fill="#000000" font-family="sans-serif" font-size="14" lengthAdjust="spacing" textLength="27" x="397.5" y="933.2259">Skill</text><line style="stroke:#181818;stroke-width:0.5;" x1="244" x2="578" y1="942.3279" y2="942.3279"/><text fill="#000000" font-family="sans-serif" font-size="14" lengthAdjust="spacing" textLength="70" x="249" y="961.2939">+Id: string</text><text fill="#000000" font-family="sans-serif" font-size="14" lengthAdjust="spacing" textLength="199" x="249" y="980.3618">+SkillIdCategory: string = null</text><text fill="#000000" font-family="sans-serif" font-size="14" lengthAdjust="spacing" textLength="96" x="249" y="999.4297">+Name: string</text><text fill="#000000" font-family="sans-serif" font-size="14" lengthAdjust="spacing" textLength="133" x="249" y="1018.4976">+Description: string</text><text fill="#000000" font-family="sans-serif" font-size="14" lengthAdjust="spacing" textLength="324" x="249" y="1037.5655">+SkillsPerProfessional: List&lt;SkillPerProfessional&gt;</text><text fill="#000000" font-family="sans-serif" font-size="14" lengthAdjust="spacing" textLength="158" x="249" y="1056.6334">+Skills: List&lt;Skill&gt; = null</text></g><!--class Professional--><g id="elem_Professional"><rect codeLine="47" fill="#F5F5F5" height="227.7471" id="Professional" rx="2.5" ry="2.5" style="stroke:#181818;stroke-width:0.5;" width="336" x="243" y="632.13"/><text fill="#000000" font-family="sans-serif" font-size="14" lengthAdjust="spacing" textLength="82" x="370" y="652.0959">Professional</text><line style="stroke:#181818;stroke-width:0.5;" x1="244" x2="578" y1="661.1979" y2="661.1979"/><text fill="#000000" font-family="sans-serif" font-size="14" lengthAdjust="spacing" textLength="70" x="249" y="680.1639">+Id: string</text><text fill="#000000" font-family="sans-serif" font-size="14" lengthAdjust="spacing" textLength="96" x="249" y="699.2318">+Name: string</text><text fill="#000000" font-family="sans-serif" font-size="14" lengthAdjust="spacing" textLength="123" x="249" y="718.2997">+LastName: string</text><text fill="#000000" font-family="sans-serif" font-size="14" lengthAdjust="spacing" textLength="93" x="249" y="737.3676">+Email: string</text><text fill="#000000" font-family="sans-serif" font-size="14" lengthAdjust="spacing" textLength="98" x="249" y="756.4355">+Phone: string</text><text fill="#000000" font-family="sans-serif" font-size="14" lengthAdjust="spacing" textLength="94" x="249" y="775.5034">+Photo: string</text><text fill="#000000" font-family="sans-serif" font-size="14" lengthAdjust="spacing" textLength="125" x="249" y="794.5714">+Enabled: boolean</text><text fill="#000000" font-family="sans-serif" font-size="14" lengthAdjust="spacing" textLength="235" x="249" y="813.6393">+HistorySquad: List&lt;HistorySquad&gt;</text><text fill="#000000" font-family="sans-serif" font-size="14" lengthAdjust="spacing" textLength="324" x="249" y="832.7072">+SkillsPerProfessional: List&lt;SkillPerProfessional&gt;</text><text fill="#000000" font-family="sans-serif" font-size="14" lengthAdjust="spacing" textLength="222" x="249" y="851.7751">+Assessments: List&lt;Assessment&gt;</text></g><!--class Customer--><g id="elem_Customer"><rect codeLine="60" fill="#F5F5F5" height="132.4075" id="Customer" rx="2.5" ry="2.5" style="stroke:#181818;stroke-width:0.5;" width="160" x="23" y="464.8"/><text fill="#000000" font-family="sans-serif" font-size="14" lengthAdjust="spacing" textLength="65" x="70.5" y="484.7659">Customer</text><line style="stroke:#181818;stroke-width:0.5;" x1="24" x2="182" y1="493.8679" y2="493.8679"/><text fill="#000000" font-family="sans-serif" font-size="14" lengthAdjust="spacing" textLength="70" x="29" y="512.8339">+Id: string</text><text fill="#000000" font-family="sans-serif" font-size="14" lengthAdjust="spacing" textLength="96" x="29" y="531.9018">+Name: string</text><text fill="#000000" font-family="sans-serif" font-size="14" lengthAdjust="spacing" textLength="93" x="29" y="550.9697">+Email: string</text><text fill="#000000" font-family="sans-serif" font-size="14" lengthAdjust="spacing" textLength="98" x="29" y="570.0376">+Phone: string</text><text fill="#000000" font-family="sans-serif" font-size="14" lengthAdjust="spacing" textLength="148" x="29" y="589.1055">+Squads: List&lt;Squad&gt;</text></g><!--class Squad--><g id="elem_Squad"><rect codeLine="68" fill="#F5F5F5" height="132.4075" id="Squad" rx="2.5" ry="2.5" style="stroke:#181818;stroke-width:0.5;" width="247" x="287.5" y="464.8"/><text fill="#000000" font-family="sans-serif" font-size="14" lengthAdjust="spacing" textLength="43" x="389.5" y="484.7659">Squad</text><line style="stroke:#181818;stroke-width:0.5;" x1="288.5" x2="533.5" y1="493.8679" y2="493.8679"/><text fill="#000000" font-family="sans-serif" font-size="14" lengthAdjust="spacing" textLength="70" x="293.5" y="512.8339">+Id: string</text><text fill="#000000" font-family="sans-serif" font-size="14" lengthAdjust="spacing" textLength="96" x="293.5" y="531.9018">+Name: string</text><text fill="#000000" font-family="sans-serif" font-size="14" lengthAdjust="spacing" textLength="133" x="293.5" y="550.9697">+Description: string</text><text fill="#000000" font-family="sans-serif" font-size="14" lengthAdjust="spacing" textLength="235" x="293.5" y="570.0376">+HistorySquad: List&lt;HistorySquad&gt;</text><text fill="#000000" font-family="sans-serif" font-size="14" lengthAdjust="spacing" textLength="222" x="293.5" y="589.1055">+Assessments: List&lt;Assessment&gt;</text></g><!--class HistorySquad--><g id="elem_HistorySquad"><rect codeLine="76" fill="#F5F5F5" height="151.4754" id="HistorySquad" rx="2.5" ry="2.5" style="stroke:#181818;stroke-width:0.5;" width="191" x="667" y="632.26"/><text fill="#000000" font-family="sans-serif" font-size="14" lengthAdjust="spacing" textLength="90" x="717.5" y="652.2259">HistorySquad</text><line style="stroke:#181818;stroke-width:0.5;" x1="668" x2="857" y1="661.3279" y2="661.3279"/><text fill="#000000" font-family="sans-serif" font-size="14" lengthAdjust="spacing" textLength="70" x="673" y="680.2939">+Id: string</text><text fill="#000000" font-family="sans-serif" font-size="14" lengthAdjust="spacing" textLength="113" x="673" y="699.3618">+SquadId: string</text><text fill="#000000" font-family="sans-serif" font-size="14" lengthAdjust="spacing" textLength="152" x="673" y="718.4297">+ProfessionalId: string</text><text fill="#000000" font-family="sans-serif" font-size="14" lengthAdjust="spacing" textLength="99" x="673" y="737.4976">+RoleId: string</text><text fill="#000000" font-family="sans-serif" font-size="14" lengthAdjust="spacing" textLength="143" x="673" y="756.5655">+StartDate: DateTime</text><text fill="#000000" font-family="sans-serif" font-size="14" lengthAdjust="spacing" textLength="179" x="673" y="775.6334">+EndDate: DateTime = null</text></g><!--class SkillPerProfessional--><g id="elem_SkillPerProfessional"><rect codeLine="85" fill="#F5F5F5" height="113.3396" id="SkillPerProfessional" rx="2.5" ry="2.5" style="stroke:#181818;stroke-width:0.5;" width="164" x="680.5" y="818.33"/><text fill="#000000" font-family="sans-serif" font-size="14" lengthAdjust="spacing" textLength="131" x="697" y="838.2959">SkillPerProfessional</text><line style="stroke:#181818;stroke-width:0.5;" x1="681.5" x2="843.5" y1="847.3979" y2="847.3979"/><text fill="#000000" font-family="sans-serif" font-size="14" lengthAdjust="spacing" textLength="70" x="686.5" y="866.3639">+Id: string</text><text fill="#000000" font-family="sans-serif" font-size="14" lengthAdjust="spacing" textLength="152" x="686.5" y="885.4318">+ProfessionalId: string</text><text fill="#000000" font-family="sans-serif" font-size="14" lengthAdjust="spacing" textLength="97" x="686.5" y="904.4997">+SkillId: string</text><text fill="#000000" font-family="sans-serif" font-size="14" lengthAdjust="spacing" textLength="104" x="686.5" y="923.5676">+LevelId: string</text></g><!--class Prompt--><g id="elem_Prompt"><rect codeLine="103" fill="#F5F5F5" height="94.2717" id="Prompt" rx="2.5" ry="2.5" style="stroke:#181818;stroke-width:0.5;" width="161" x="682" y="44.86"/><text fill="#000000" font-family="sans-serif" font-size="14" lengthAdjust="spacing" textLength="49" x="738" y="64.8259">Prompt</text><line style="stroke:#181818;stroke-width:0.5;" x1="683" x2="842" y1="73.9279" y2="73.9279"/><text fill="#000000" font-family="sans-serif" font-size="14" lengthAdjust="spacing" textLength="70" x="688" y="92.8939">+Id: string</text><text fill="#000000" font-family="sans-serif" font-size="14" lengthAdjust="spacing" textLength="105" x="688" y="111.9618">+Prompt: string</text><text fill="#000000" font-family="sans-serif" font-size="14" lengthAdjust="spacing" textLength="149" x="688" y="131.0297">+Queries: List&lt;Query&gt;</text></g><!--class Query--><g id="elem_Query"><rect codeLine="109" fill="#F5F5F5" height="94.2717" id="Query" rx="2.5" ry="2.5" style="stroke:#181818;stroke-width:0.5;" width="131" x="1069.5" y="44.86"/><text fill="#000000" font-family="sans-serif" font-size="14" lengthAdjust="spacing" textLength="41" x="1114.5" y="64.8259">Query</text><line style="stroke:#181818;stroke-width:0.5;" x1="1070.5" x2="1199.5" y1="73.9279" y2="73.9279"/><text fill="#000000" font-family="sans-serif" font-size="14" lengthAdjust="spacing" textLength="70" x="1075.5" y="92.8939">+Id: string</text><text fill="#000000" font-family="sans-serif" font-size="14" lengthAdjust="spacing" textLength="97" x="1075.5" y="111.9618">+Query: string</text><text fill="#000000" font-family="sans-serif" font-size="14" lengthAdjust="spacing" textLength="119" x="1075.5" y="131.0297">+PromptId: string</text></g><!--class Assessment--><g id="elem_Assessment"><rect codeLine="119" fill="#F5F5F5" height="170.5433" id="Assessment" rx="2.5" ry="2.5" style="stroke:#181818;stroke-width:0.5;" width="209" x="658" y="216.73"/><text fill="#000000" font-family="sans-serif" font-size="14" lengthAdjust="spacing" textLength="80" x="722.5" y="236.6959">Assessment</text><line style="stroke:#181818;stroke-width:0.5;" x1="659" x2="866" y1="245.7979" y2="245.7979"/><text fill="#000000" font-family="sans-serif" font-size="14" lengthAdjust="spacing" textLength="70" x="664" y="264.7639">+Id: string</text><text fill="#000000" font-family="sans-serif" font-size="14" lengthAdjust="spacing" textLength="99" x="664" y="283.8318">+RoleId: string</text><text fill="#000000" font-family="sans-serif" font-size="14" lengthAdjust="spacing" textLength="152" x="664" y="302.8997">+ProfessionalId: string</text><text fill="#000000" font-family="sans-serif" font-size="14" lengthAdjust="spacing" textLength="113" x="664" y="321.9676">+SquadId: string</text><text fill="#000000" font-family="sans-serif" font-size="14" lengthAdjust="spacing" textLength="197" x="664" y="341.0355">+TechnicalEvaluatorId: string</text><text fill="#000000" font-family="sans-serif" font-size="14" lengthAdjust="spacing" textLength="188" x="664" y="360.1034">+Results: List&lt;Result&gt; = null</text><text fill="#000000" font-family="sans-serif" font-size="14" lengthAdjust="spacing" textLength="152" x="664" y="379.1714">+Review: Review = null</text></g><!--class Result--><g id="elem_Result"><rect codeLine="129" fill="#F5F5F5" height="132.4075" id="Result" rx="2.5" ry="2.5" style="stroke:#181818;stroke-width:0.5;" width="162" x="1054" y="226.8"/><text fill="#000000" font-family="sans-serif" font-size="14" lengthAdjust="spacing" textLength="42" x="1114" y="246.7659">Result</text><line style="stroke:#181818;stroke-width:0.5;" x1="1055" x2="1215" y1="255.8679" y2="255.8679"/><text fill="#000000" font-family="sans-serif" font-size="14" lengthAdjust="spacing" textLength="70" x="1060" y="274.8339">+Id: string</text><text fill="#000000" font-family="sans-serif" font-size="14" lengthAdjust="spacing" textLength="150" x="1060" y="293.9018">+AssessmentId: string</text><text fill="#000000" font-family="sans-serif" font-size="14" lengthAdjust="spacing" textLength="119" x="1060" y="312.9697">+PromptId: string</text><text fill="#000000" font-family="sans-serif" font-size="14" lengthAdjust="spacing" textLength="71" x="1060" y="332.0376">+Score: int</text><text fill="#000000" font-family="sans-serif" font-size="14" lengthAdjust="spacing" textLength="111" x="1060" y="351.1055">+Date: DateTime</text></g><!--class Level--><g id="elem_Level"><rect codeLine="146" fill="#F5F5F5" height="113.3396" id="Level" rx="2.5" ry="2.5" style="stroke:#181818;stroke-width:0.5;" width="378" x="946" y="790.33"/><text fill="#000000" font-family="sans-serif" font-size="14" lengthAdjust="spacing" textLength="34" x="1118" y="810.2959">Level</text><line style="stroke:#181818;stroke-width:0.5;" x1="947" x2="1323" y1="819.3979" y2="819.3979"/><text fill="#000000" font-family="sans-serif" font-size="14" lengthAdjust="spacing" textLength="70" x="952" y="838.3639">+Id: string</text><text fill="#000000" font-family="sans-serif" font-size="14" lengthAdjust="spacing" textLength="96" x="952" y="857.4318">+Name: string</text><text fill="#000000" font-family="sans-serif" font-size="14" lengthAdjust="spacing" textLength="133" x="952" y="876.4997">+Description: string</text><text fill="#000000" font-family="sans-serif" font-size="14" lengthAdjust="spacing" textLength="366" x="952" y="895.5676">+SkillsPerProfessional: List&lt;SkillPerProfessional&gt; = null</text></g><!--class Review--><g id="elem_Review"><rect codeLine="153" fill="#F5F5F5" height="113.3396" id="Review" rx="2.5" ry="2.5" style="stroke:#181818;stroke-width:0.5;" width="162" x="1054" y="494.33"/><text fill="#000000" font-family="sans-serif" font-size="14" lengthAdjust="spacing" textLength="47" x="1111.5" y="514.2959">Review</text><line style="stroke:#181818;stroke-width:0.5;" x1="1055" x2="1215" y1="523.3979" y2="523.3979"/><text fill="#000000" font-family="sans-serif" font-size="14" lengthAdjust="spacing" textLength="70" x="1060" y="542.3639">+Id: string</text><text fill="#000000" font-family="sans-serif" font-size="14" lengthAdjust="spacing" textLength="103" x="1060" y="561.4318">+Review: string</text><text fill="#000000" font-family="sans-serif" font-size="14" lengthAdjust="spacing" textLength="111" x="1060" y="580.4997">+Date: DateTime</text><text fill="#000000" font-family="sans-serif" font-size="14" lengthAdjust="spacing" textLength="150" x="1060" y="599.5676">+AssessmentId: string</text></g><!--class GapClouser--><g id="elem_GapClouser"><rect codeLine="160" fill="#F5F5F5" height="113.3396" id="GapClouser" rx="2.5" ry="2.5" style="stroke:#181818;stroke-width:0.5;" width="162" x="1054" y="642.33"/><text fill="#000000" font-family="sans-serif" font-size="14" lengthAdjust="spacing" textLength="78" x="1096" y="662.2959">GapClouser</text><line style="stroke:#181818;stroke-width:0.5;" x1="1055" x2="1215" y1="671.3979" y2="671.3979"/><text fill="#000000" font-family="sans-serif" font-size="14" lengthAdjust="spacing" textLength="70" x="1060" y="690.3639">+Id: string</text><text fill="#000000" font-family="sans-serif" font-size="14" lengthAdjust="spacing" textLength="150" x="1060" y="709.4318">+AssessmentId: string</text><text fill="#000000" font-family="sans-serif" font-size="14" lengthAdjust="spacing" textLength="97" x="1060" y="728.4997">+SkillId: string</text><text fill="#000000" font-family="sans-serif" font-size="14" lengthAdjust="spacing" textLength="134" x="1060" y="747.5676">+GapClouser: string</text></g><!--link Role to User--><g id="link_Role_User"><path codeLine="26" d="M175.74,302 C226.88,302 283.09,302 332.71,302 " fill="none" id="Role-to-User" style="stroke:#181818;stroke-width:1.0;"/><polygon fill="none" points="344.71,302,338.71,298,332.71,302,338.71,306,344.71,302" style="stroke:#181818;stroke-width:1.0;"/><text fill="#000000" font-family="sans-serif" font-size="13" lengthAdjust="spacing" textLength="7" x="183.6023" y="316.8104">1</text><text fill="#000000" font-family="sans-serif" font-size="13" lengthAdjust="spacing" textLength="20" x="316.8426" y="316.8096">0..*</text></g><!--reverse link HistorySquad to Role--><g id="link_HistorySquad_Role"><path codeLine="92" d="M762.5,619.95 C762.5,608.51 762.5,609.07 762.5,597.64 " fill="none" id="HistorySquad-backto-Role" style="stroke:#181818;stroke-width:1.0;"/><polygon fill="none" points="762.5,631.95,766.5,625.95,762.5,619.95,758.5,625.95,762.5,631.95" style="stroke:#181818;stroke-width:1.0;"/><text fill="#000000" font-family="sans-serif" font-size="13" lengthAdjust="spacing" textLength="20" x="741.5156" y="620.5591">1..*</text><text fill="#000000" font-family="sans-serif" font-size="13" lengthAdjust="spacing" textLength="7" x="755.1391" y="619.3218">1</text></g><!--link Skill to HistorySquad--><g id="link_Skill_HistorySquad"><path codeLine="93" d="M536.24,913 C551.29,901.71 565.94,889.61 579,877 C609,848.05 604.57,830.54 634,801 C644.06,790.91 645.9402,788.6021 657.4502,779.3421 " fill="none" id="Skill-to-HistorySquad" style="stroke:#181818;stroke-width:1.0;"/><polygon fill="none" points="666.8,771.82,659.6178,772.4644,657.4502,779.3421,664.6325,778.6976,666.8,771.82" style="stroke:#181818;stroke-width:1.0;"/><text fill="#000000" font-family="sans-serif" font-size="13" lengthAdjust="spacing" textLength="7" x="541.7944" y="901.2196">1</text><text fill="#000000" font-family="sans-serif" font-size="13" lengthAdjust="spacing" textLength="20" x="639.0377" y="791.0541">1..*</text></g><!--link Professional to HistorySquad--><g id="link_Professional_HistorySquad"><path codeLine="94" d="M579.33,727.81 C609.31,724.55 627.6599,722.5432 654.6899,719.6132 " fill="none" id="Professional-to-HistorySquad" style="stroke:#181818;stroke-width:1.0;"/><polygon fill="none" points="666.62,718.32,660.2239,714.9899,654.6899,719.6132,661.086,722.9433,666.62,718.32" style="stroke:#181818;stroke-width:1.0;"/><text fill="#000000" font-family="sans-serif" font-size="13" lengthAdjust="spacing" textLength="7" x="587.116" y="741.2838">1</text><text fill="#000000" font-family="sans-serif" font-size="13" lengthAdjust="spacing" textLength="20" x="638.8444" y="733.6252">1..*</text></g><!--link Customer to Squad--><g id="link_Customer_Squad"><path codeLine="95" d="M183.2,531 C214.9,531 240.15,531 275.21,531 " fill="none" id="Customer-to-Squad" style="stroke:#181818;stroke-width:1.0;"/><polygon fill="none" points="287.21,531,281.21,527,275.21,531,281.21,535,287.21,531" style="stroke:#181818;stroke-width:1.0;"/><text fill="#000000" font-family="sans-serif" font-size="13" lengthAdjust="spacing" textLength="7" x="190.9161" y="545.7128">1</text><text fill="#000000" font-family="sans-serif" font-size="13" lengthAdjust="spacing" textLength="20" x="259.4753" y="545.4086">1..*</text></g><!--link Squad to HistorySquad--><g id="link_Squad_HistorySquad"><path codeLine="96" d="M534.71,592.63 C549.63,600.15 564.67,607.74 579,615 C607.55,629.46 627.8996,639.7888 656.1396,654.1888 " fill="none" id="Squad-to-HistorySquad" style="stroke:#181818;stroke-width:1.0;"/><polygon fill="none" points="666.83,659.64,663.3019,653.3509,656.1396,654.1888,659.6677,660.4779,666.83,659.64" style="stroke:#181818;stroke-width:1.0;"/><text fill="#000000" font-family="sans-serif" font-size="13" lengthAdjust="spacing" textLength="7" x="542.4619" y="610.8218">1</text><text fill="#000000" font-family="sans-serif" font-size="13" lengthAdjust="spacing" textLength="20" x="639.0699" y="670.6359">1..*</text></g><!--link Professional to SkillPerProfessional--><g id="link_Professional_SkillPerProfessional"><path codeLine="97" d="M579.33,807.76 C614.4,820.7 638.6115,829.647 668.8115,840.787 " fill="none" id="Professional-to-SkillPerProfessional" style="stroke:#181818;stroke-width:1.0;"/><polygon fill="none" points="680.07,844.94,675.8251,839.1107,668.8115,840.787,673.0565,846.6163,680.07,844.94" style="stroke:#181818;stroke-width:1.0;"/><text fill="#000000" font-family="sans-serif" font-size="13" lengthAdjust="spacing" textLength="7" x="587.116" y="824.8565">1</text><text fill="#000000" font-family="sans-serif" font-size="13" lengthAdjust="spacing" textLength="20" x="652.4156" y="857.0808">1..*</text></g><!--link Skill to SkillPerProfessional--><g id="link_Skill_SkillPerProfessional"><path codeLine="98" d="M579.33,934.42 C614.4,922.98 638.4615,915.131 668.6615,905.281 " fill="none" id="Skill-to-SkillPerProfessional" style="stroke:#181818;stroke-width:1.0;"/><polygon fill="none" points="680.07,901.56,673.1254,899.6177,668.6615,905.281,675.6061,907.2233,680.07,901.56" style="stroke:#181818;stroke-width:1.0;"/><text fill="#000000" font-family="sans-serif" font-size="13" lengthAdjust="spacing" textLength="7" x="587.116" y="946.2451">1</text><text fill="#000000" font-family="sans-serif" font-size="13" lengthAdjust="spacing" textLength="20" x="652.4156" y="918.3897">1..*</text></g><!--link Skill to Skill--><g id="link_Skill_Skill"><path codeLine="99" d="M353.85,912.92 C357.36,893.16 376.41,878.26 411,878.26 C445.59,878.26 462.5413,881.345 466.0513,901.105 " fill="none" id="Skill-to-Skill" style="stroke:#181818;stroke-width:1.0;"/><polygon fill="none" points="468.15,912.92,471.039,906.3129,466.0513,901.105,463.1623,907.7121,468.15,912.92" style="stroke:#181818;stroke-width:1.0;"/><text fill="#000000" font-family="sans-serif" font-size="13" lengthAdjust="spacing" textLength="7" x="340.8798" y="901.5261">1</text><text fill="#000000" font-family="sans-serif" font-size="13" lengthAdjust="spacing" textLength="20" x="452.7913" y="901.5261">0..*</text></g><!--link Prompt to Query--><g id="link_Prompt_Query"><path codeLine="115" d="M843.44,92 C910.87,92 994.19,92 1057.01,92 " fill="none" id="Prompt-to-Query" style="stroke:#181818;stroke-width:1.0;"/><polygon fill="none" points="1069.01,92,1063.01,88,1057.01,92,1063.01,96,1069.01,92" style="stroke:#181818;stroke-width:1.0;"/><text fill="#000000" font-family="sans-serif" font-size="13" lengthAdjust="spacing" textLength="7" x="850.9604" y="106.6859">1</text><text fill="#000000" font-family="sans-serif" font-size="13" lengthAdjust="spacing" textLength="20" x="1041.5297" y="106.7689">0..*</text></g><!--link Assessment to Result--><g id="link_Assessment_Result"><path codeLine="137" d="M867.2,299.48 C926.18,298.05 986.9336,296.5721 1041.5636,295.2421 " fill="none" id="Assessment-to-Result" style="stroke:#181818;stroke-width:1.0;"/><polygon fill="none" points="1053.56,294.95,1047.4644,291.0972,1041.5636,295.2421,1047.6591,299.0948,1053.56,294.95" style="stroke:#181818;stroke-width:1.0;"/><text fill="#000000" font-family="sans-serif" font-size="13" lengthAdjust="spacing" textLength="7" x="875.1459" y="313.842">1</text><text fill="#000000" font-family="sans-serif" font-size="13" lengthAdjust="spacing" textLength="20" x="1025.9876" y="309.7413">1..*</text></g><!--link Role to Assessment--><g id="link_Role_Assessment"><path codeLine="138" d="M838.94,464.36 C856.24,438.78 864.2045,424.3103 853.7645,398.7303 " fill="none" id="Role-to-Assessment" style="stroke:#181818;stroke-width:1.0;"/><polygon fill="none" points="849.23,387.62,847.7938,394.6866,853.7645,398.7303,855.2007,391.6637,849.23,387.62" style="stroke:#181818;stroke-width:1.0;"/><text fill="#000000" font-family="sans-serif" font-size="13" lengthAdjust="spacing" textLength="7" x="839.9178" y="453.0768">1</text><text fill="#000000" font-family="sans-serif" font-size="13" lengthAdjust="spacing" textLength="20" x="648.0618" y="409.0452">1..*</text></g><!--link Professional to Assessment--><g id="link_Professional_Assessment"><path codeLine="139" d="M566.02,631.78 C570.62,626.33 574.97,620.73 579,615 C623.7,551.42 595.57,516.56 634,449 C646.11,427.71 653.9191,415.9181 669.8791,396.7181 " fill="none" id="Professional-to-Assessment" style="stroke:#181818;stroke-width:1.0;"/><polygon fill="none" points="677.55,387.49,670.6385,389.5471,669.8791,396.7181,676.7906,394.661,677.55,387.49" style="stroke:#181818;stroke-width:1.0;"/><text fill="#000000" font-family="sans-serif" font-size="13" lengthAdjust="spacing" textLength="7" x="569.2003" y="620.4552">1</text><text fill="#000000" font-family="sans-serif" font-size="13" lengthAdjust="spacing" textLength="20" x="671.3432" y="409.1997">1..*</text></g><!--link Squad to Assessment--><g id="link_Squad_Assessment"><path codeLine="140" d="M513.56,464.46 C558.81,434.81 602.0031,406.5073 647.5231,376.6773 " fill="none" id="Squad-to-Assessment" style="stroke:#181818;stroke-width:1.0;"/><polygon fill="none" points="657.56,370.1,650.3491,370.043,647.5231,376.6773,654.734,376.7343,657.56,370.1" style="stroke:#181818;stroke-width:1.0;"/><text fill="#000000" font-family="sans-serif" font-size="13" lengthAdjust="spacing" textLength="7" x="517.3947" y="453.1877">1</text><text fill="#000000" font-family="sans-serif" font-size="13" lengthAdjust="spacing" textLength="20" x="629.8375" y="389.1672">1..*</text></g><!--link Prompt to Result--><g id="link_Prompt_Result"><path codeLine="141" d="M843.44,135.37 C905.55,169.07 980.7818,209.8785 1043.0218,243.6385 " fill="none" id="Prompt-to-Result" style="stroke:#181818;stroke-width:1.0;"/><polygon fill="none" points="1053.57,249.36,1050.2031,242.9832,1043.0218,243.6385,1046.3887,250.0153,1053.57,249.36" style="stroke:#181818;stroke-width:1.0;"/><text fill="#000000" font-family="sans-serif" font-size="13" lengthAdjust="spacing" textLength="7" x="850.9604" y="153.9185">1</text><text fill="#000000" font-family="sans-serif" font-size="13" lengthAdjust="spacing" textLength="20" x="1025.9985" y="260.3759">1..*</text></g><!--link User to Assessment--><g id="link_User_Assessment"><path codeLine="142" d="M477.33,302 C528.01,302 587.23,302 645.69,302 " fill="none" id="User-to-Assessment" style="stroke:#181818;stroke-width:1.0;"/><polygon fill="none" points="657.69,302,651.69,298,645.69,302,651.69,306,657.69,302" style="stroke:#181818;stroke-width:1.0;"/><text fill="#000000" font-family="sans-serif" font-size="13" lengthAdjust="spacing" textLength="7" x="484.9677" y="316.8649">1</text><text fill="#000000" font-family="sans-serif" font-size="13" lengthAdjust="spacing" textLength="20" x="629.9762" y="316.4917">1..*</text></g><!--link Level to SkillPerProfessional--><g id="link_Level_SkillPerProfessional"><path codeLine="167" d="M945.84,861.22 C910.27,863.91 886.8059,865.6855 856.7759,867.9555 " fill="none" id="Level-to-SkillPerProfessional" style="stroke:#181818;stroke-width:1.0;"/><polygon fill="none" points="844.81,868.86,851.0944,872.3964,856.7759,867.9555,850.4914,864.4191,844.81,868.86" style="stroke:#181818;stroke-width:1.0;"/><text fill="#000000" font-family="sans-serif" font-size="13" lengthAdjust="spacing" textLength="7" x="930.7122" y="876.0904">1</text><text fill="#000000" font-family="sans-serif" font-size="13" lengthAdjust="spacing" textLength="20" x="852.4544" y="882.9817">1..*</text></g><!--link Assessment to Review--><g id="link_Assessment_Review"><path codeLine="168" d="M867.2,371.69 C926.18,411.33 988.9699,453.537 1043.5999,490.247 " fill="none" id="Assessment-to-Review" style="stroke:#181818;stroke-width:1.0;"/><polygon fill="none" points="1053.56,496.94,1050.8109,490.2735,1043.5999,490.247,1046.3489,496.9136,1053.56,496.94" style="stroke:#181818;stroke-width:1.0;"/><text fill="#000000" font-family="sans-serif" font-size="13" lengthAdjust="spacing" textLength="7" x="875.1459" y="373.1065">1</text><text fill="#000000" font-family="sans-serif" font-size="13" lengthAdjust="spacing" textLength="7" x="1038.995" y="506.8108">1</text></g><!--link Assessment to GapClouser--><g id="link_Assessment_GapClouser"><path codeLine="169" d="M867.37,386.48 C884.35,405.24 899.73,426.36 910,449 C926.2,484.7 898.23,593.83 922,625 C952.91,665.53 995.742,681.8219 1041.802,690.1619 " fill="none" id="Assessment-to-GapClouser" style="stroke:#181818;stroke-width:1.0;"/><polygon fill="none" points="1053.61,692.3,1048.4187,687.295,1041.802,690.1619,1046.9933,695.167,1053.61,692.3" style="stroke:#181818;stroke-width:1.0;"/><text fill="#000000" font-family="sans-serif" font-size="13" lengthAdjust="spacing" textLength="7" x="874.9898" y="406.9394">1</text><text fill="#000000" font-family="sans-serif" font-size="13" lengthAdjust="spacing" textLength="20" x="1026.0418" y="687.9675">1..*</text></g><!--link Skill to GapClouser--><g id="link_Skill_GapClouser"><path codeLine="170" d="M579.45,1025.76 C688.73,1039.08 826.18,1033.84 910,949 C937.55,921.11 898.23,804.17 922,773 C952.91,732.47 995.742,716.1781 1041.802,707.8381 " fill="none" id="Skill-to-GapClouser" style="stroke:#181818;stroke-width:1.0;"/><polygon fill="none" points="1053.61,705.7,1046.9933,702.833,1041.802,707.8381,1048.4187,710.705,1053.61,705.7" style="stroke:#181818;stroke-width:1.0;"/><text fill="#000000" font-family="sans-serif" font-size="13" lengthAdjust="spacing" textLength="7" x="587.2415" y="1041.724">1</text><text fill="#000000" font-family="sans-serif" font-size="13" lengthAdjust="spacing" textLength="20" x="1026.0418" y="720.885">1..*</text></g><!--SRC=[rLVFJzim5Bxdhx1wt4G5LyGYGM4T4fewoZHnDCwZiUhOdUs0ked_VROJ4YUnIKl5OJsapNkVto-_xzbLQyetME824OQLEjTQqeTImpKHV4d_03fESfe18bGI1jNl0dGkCfKmUDH82oJfAjSeenA8fe8dgh6vm6IDLt0XP0Po9fYGwCQ2vn9lFTY5WQsaA7dcOUw1CV7ieMOsm3xqLqurB0knXe3R7dQU2wNTWYJPL11qJWWeDHDSIy7GsTbNinxI5FrDaFcucg2V2cGji9_Fw3exHSeKYgyyuNUpC21U60lF9l-0wgh0b0Naju8PI_RfX2-95ukLlZkMIr14qetTf8wszk1iJqucwEX8eCdnTFffud9FNjfwBQHuf0nKf5GV4bwb_KQL5dAx_5rYO_F6l9tvejI3dYjbDhK0hbMDR2NfiARBDMLiF6e7kyvcMCFAU7r5e2-8bumTcfwphXOWROLDh0Q5MHszq_LKwM2j3qxzg3h9-ZRUlLCtMEc8AjRKYrnm2Ckr2DdX-861YUb1c9x2_7sTS4XLz-oYMMb2A0wO5FjMpYNRx7gRURUthVo_OwHlPWTYMbXGuszj463dLTYcnb9V6ggV8lkyemLqcZFhwg9q2pNPU4QZSTUpA4HDU8A-PZ3VcHtm9sx0-wLsg6eQDiT01DN9PmpSKAC7z9owdJx4QQZGyNnsHH-tQFyK_562t5vWleuSWyPiiT4xxRF11HJM0OLNhZXt0Peu-RWN1ujw3_TAdK6l4CwINmYFrv5Ij8ZnGADi7ET3T0JS0Sav9PXTFM5MOjDGOTUWIjOCf-ej7Hxjj_14uVcq_ewolbe_dd1Rd3VQ8vmm4TBC7ygrFww7yweEozk57XEgK1jwsRlTj7iHh72jXIxsBKx6rWJPtWCt59lsMt4GT-SEFtMtzRXjltbDo5jDYUeqh1kW7tHYxdqTUQF3N0EEKwfks66WiRCjsfCT_tEycJ5HxlJFQAJBusTPwoGKIBLHkmxs80CcTNr6EDB64JzHFCnByWy0]--></g></svg>